<svg version="1" xmlns="http://www.w3.org/2000/svg" width="1440" height="1440" viewBox="0 0 1080.000000 1080.000000"><path d="M528.7 174.6c-.1.1-3.6.5-7.7.8-26.2 2.4-50.4 8.9-74.5 20.2-13.4 6.3-33.6 19.3-43.2 27.7-2.6 2.4-7 5.6-9.8 7.2-6.9 3.9-19.2 16.5-25 25.5-5.8 9.1-13.9 25.8-19.5 40.5-15.7 40.9-20.5 51.2-39.2 83.5-5.3 9.1-12.8 22-16.7 28.7-23.2 40.2-36.8 69.8-46.8 102.3-4.7 15.4-10.1 39.4-11.8 52.5-.3 2.7-.8 6.1-1 7.5-.5 3.4-1.5 13.1-2.1 21-.7 8.2-.7 43.5 0 47.5.3 1.6.8 6.1 1.2 10 .3 3.8.8 7.3 1 7.6.2.4.6 2.4 1 4.5 1.8 12.1 10.2 39.2 16.5 53.7 11.2 25.5 25.8 49.4 43.9 72.1 14 17.6 45 46.9 61.4 58.1 2.8 1.9 7.6 5.2 10.6 7.2 32.4 22.3 80.6 42 117 47.7 1.9.3 4.6.8 6 1 4.8.9 9.7 1.5 15.6 2.1 3.2.3 7.5.8 9.4 1.1 4.7.6 43.4.7 48.5 0 2.2-.3 6.9-.8 10.5-1.1 3.6-.3 7.6-.7 9-1 1.4-.2 4.1-.6 6-.9 67.4-10.2 132.9-45.6 182.5-98.7 25.1-26.9 46.5-60.4 59.9-93.7 5.9-14.6 12.3-36.3 14-47.2.3-1.9.9-5.8 1.4-8.5.5-2.8 1-5.7 1-6.5 0-.8.4-4.9.8-9 1.2-11.7.6-45.1-1-57.5-.2-1.7-.7-5.9-1.1-9.5-.3-3.6-.8-7.2-1-8-.2-.8-.7-3.5-1-6-.4-2.5-1.3-7.7-2.2-11.5-.8-3.9-1.6-8-1.9-9.1-1.2-6-6.6-25.8-8.9-32.4-1.5-4.1-2.8-8.2-3-9-.6-2.7-9.1-23.2-14-33.9-8-17.4-19-37.9-33.2-62-4-6.7-7.3-12.5-7.3-12.7 0-.2-1.6-2.8-3.5-5.9-2-3-3.9-6.3-4.2-7.3-.4-.9-2.7-5.1-5.1-9.2-7.1-11.9-17.7-34.7-23.6-50.2-6.8-18.1-13.8-35.2-17.2-42-9.8-19.6-23-35.3-35.9-42.4-3.8-2.1-9.8-6.1-13.3-8.9-15.2-12.1-41.4-26.9-57.4-32.5-7.8-2.7-21.6-6.9-24.3-7.4-1.1-.3-4-.9-6.5-1.5-2.5-.5-6.7-1.3-9.5-1.7-2.7-.3-5.9-.8-7-1-4.2-.8-37.1-2.4-37.8-1.8zm29.3 32.8c19.9 2.2 38.8 7.5 57 15.8 4.7 2.1 9.5 4.6 10.8 5.4 2.3 1.5 2.3 1.5-3.5 5.8-6.7 5-11.5 10-16.6 17.5-3 4.3-3.7 6.3-3.7 10 0 8.5 4.8 14.4 13.1 15.9 6 1.1 11.7-1.4 16.1-7.2 9.2-12 15.2-15.6 25.9-15.6 10.5 0 17 3.7 24.9 14.5 7.8 10.6 13.5 23.1 29.4 64.7 4.9 12.9 17.2 37.5 28.7 57.3 5.1 8.8 9.9 17.1 10.6 18.5.8 1.4 2.3 3.8 3.3 5.5 1 1.6 2.5 4.1 3.3 5.5.8 1.4 4.7 8.3 8.7 15.5 27.5 48.8 42.2 89.3 48 132 .6 4.4 1.3 9.3 1.5 11 1.8 11.8 2.6 53.2 1.1 60.7-.6 3.6-1 3.8-18.4 12.5-26.7 13.5-70.1 29.8-84.3 31.8-2.4.4-6.4 1.5-8.9 2.5-4.2 1.7-32.1 8.3-40.7 9.6-2.1.3-5.7 1-8.1 1.5-2.3.5-5.8 1.1-7.7 1.4-1.9.3-5.2.7-7.2 1-16.4 2.4-25 3.5-30.9 4-3.8.3-8.5.8-10.4 1-3.9.5-14.6 1.2-29.5 2.1-12.4.7-47.8.7-60.5 0-13.3-.8-24.9-1.6-29-2.1-1.9-.2-6.4-.7-10-1-3.6-.3-7.5-.7-8.5-.9-1.1-.2-4.5-.7-7.5-1-3-.4-6.6-.8-8-1.1-25.7-4.2-30.7-5.1-34-5.9-1.4-.3-3.6-.8-5-1-1.4-.2-5.6-1.2-9.5-2.1-3.8-.9-7.8-1.8-8.9-2-16.7-3.5-62.3-17.8-70.8-22.1-1.6-.8-2.8-1.2-2.8-1 0 .6-27.2-11.3-28.7-12.6-.7-.6-1.3-.8-1.3-.6 0 .3-5-2.1-11.2-5.2l-11.2-5.8-.5-5.3c-1.1-13.1-.3-46.6 1.5-59.7 1.1-8.5 1.5-11.1 2.5-16.7 3.9-22.7 10.7-47.7 17.4-64 6.2-15.2 8.7-20.8 14.5-32.5 8.3-16.8 15.4-29.8 32.7-59.3 7.5-12.8 17.7-31.3 22.8-41.2 9.2-18 11.3-22.8 22-51 10-25.9 17.5-40.3 26.2-49.6 6.3-6.7 10.7-8.7 19.4-8.7 11.5 0 18.8 4.1 26 14.5 3.9 5.6 8.9 8.6 14.4 8.5 12.6-.3 19.8-13.4 13.3-24.3-3.6-6-11.3-14.3-17.5-19-3.2-2.3-6.2-4.6-6.7-5.1-1.1-.9 16.6-9.4 27.4-13.1 8.4-2.9 21.7-6.5 27-7.3 1.9-.3 4.1-.7 4.9-1 .8-.3 5.5-.7 10.5-1.1 5-.3 9.2-.7 9.4-.8.5-.4 21.5.3 27.2.9zM284 688.8c12.3 5.7 35.1 14.3 54.8 20.7.8.3-3.9 8.1-13.4 22.2-8.1 12-15 22.1-15.4 22.6-.9 1.1-13.9-19-21.3-33.4-5.3-10.1-15.7-34.2-15.7-36.3 0-.7 2.7.4 11 4.2zm521.4-.1c-.9 2.7-1.9 5.7-2.4 6.8-.5 1.1-2.5 5.8-4.5 10.5-5.2 12.1-12.6 25.8-21.2 38.7-4 6.2-7.6 11.3-7.8 11.3-.5 0-29.4-42.7-29.7-44-.2-.5 6.7-3.4 15.2-6.4 8.5-3 19.8-7.2 25-9.4 5.2-2.2 12-5 15-6.3 3-1.3 6.9-3.1 8.5-4.1 1.7-1 3.1-1.8 3.2-1.8.1 0-.5 2.1-1.3 4.7zm-395.9 38.8c7.2 1.4 14.8 2.8 17 3 2.2.3 6.3.9 9 1.5 2.8.5 6.8 1.1 9 1.4 2.2.2 6.5.8 9.5 1.1 3 .4 6.6.9 8 1.1 1.4.2 5.9.6 10 1 4.1.3 8.5.7 9.8.9 1.3.2 7.7.7 14.2 1.1 6.6.4 12 1 12 1.3 0 .7-14 20.8-42.3 60.9-6.5 9.2-12.6 17.8-13.5 19.2-.9 1.4-3.9 5.6-6.6 9.4l-4.9 6.8-18.7-43.9c-10.4-24.1-19.3-44.9-19.8-46.3-.6-1.4-2.9-6.7-5.1-11.8-2.3-5.1-4.1-9.5-4.1-9.8 0-.3.8-.3 1.8 0 .9.3 7.6 1.7 14.7 3.1zM662 778.6c-12.2 28.6-22.7 53.2-23.4 54.7l-1.3 2.8-7-9.8c-3.9-5.4-17.5-24.7-30.1-42.8-12.7-18.2-24.4-34.8-26.1-37-5.2-7.1-5.2-7.5 1.5-7.6 3.3-.1 7-.2 8.4-.4 1.4-.1 7.2-.5 13-1 5.8-.4 12.1-.9 14-1 9.5-.9 15.7-1.6 18-2 1.4-.3 5-.7 8-1 3-.4 6.2-.8 7-1 .8-.2 3.8-.7 6.5-1 2.8-.4 5.7-.8 6.5-1 .8-.3 3.2-.7 5.4-1.1 2.1-.3 4.8-.8 6-1 1.1-.2 3.5-.7 5.1-.9 1.7-.3 4.4-.9 6-1.4 1.7-.5 3.4-.5 3.8-.1.5.4-9.1 24.1-21.3 52.6zm-275.7 11.1c11.8 27.7 21.2 50.3 20.9 50.3-1.2 0-17.4-9.7-26.2-15.8-13.6-9.4-26.1-19.6-39.1-32.1l-11.4-10.9 15.9-23.7c15.8-23.5 15.9-23.6 17.2-20.8.7 1.5 10.9 25.4 22.7 53zm334.4-48.5c2.7 4 10 14.9 16.3 24.2l11.4 16.9-10.5 10.1c-16 15.6-32.8 28.5-53.1 40.9-13.6 8.3-16.2 9.3-13.8 4.9.5-.9 5.6-12.7 11.3-26.2 22.2-52.2 33.2-78 33.4-78 .1 0 2.3 3.3 5 7.2zm-136.5 75.1c.7 1 7.4 10.4 14.8 21s14.5 20.7 15.8 22.4l2.2 3.1-5.2 1.6c-7 2-24.8 5.6-31.2 6.3-2.8.3-5.3.6-5.6.8-1.3.8-21.5 1.9-34.5 1.9-14.7 0-29-.8-39-2.3-3.3-.5-7.8-1.2-10-1.6-4.3-.6-16.9-3.4-22.5-5-.3-.1-2-.5-3.7-.9-1.8-.4-3.3-1.1-3.3-1.4 0-.6 23.1-33.9 33-47.7 1.2-1.7 9.6-13.6 18.6-26.5 9.1-12.9 18.5-26.3 21-29.8l4.5-6.3 21.9 31.3c12.1 17.2 22.5 32.1 23.2 33.1z"/><path d="M425.5 344c-16.5 3.3-31.4 14.6-39 29.5-4.7 9.2-6.4 17.1-6.1 27.5.9 29.4 24.4 52.7 54.1 53.6 16.5.5 29.7-4.7 41.2-16.3 11.1-11.2 16.7-24.6 16.5-39.7-.1-7.8-.3-8.6-2.6-16.6-2.3-7.8-6.9-15.3-13.4-22-10.7-10.9-22.6-16.1-37.7-16.5-4.9-.1-10.8.1-13 .5zm21 33.4c18 8.3 18.7 33.6 1.2 42.8-5.6 3-16.5 3.1-22 .4-9.1-4.5-13.2-11.1-13.2-21.6 0-6.8.3-8 3.2-12.5 7-10.8 19.4-14.5 30.8-9.1zM628.6 344.6c-24 5.7-42 27.9-43 52.9-.9 24 15.3 46.8 39.1 54.7 8.9 3 25 3.2 33.3.4 11.7-3.9 21.4-10.8 28.6-20.1 12.9-16.6 14.7-40.4 4.6-60-5.7-11.3-19.2-22.5-32-26.6-8.3-2.7-22.2-3.3-30.6-1.3zm24.1 32.7c1.7.9 4.5 3.1 6.2 4.8 5.2 5.2 6.6 8.6 6.6 16.9 0 8.3-1.4 11.7-6.5 16.8-4.1 4.2-8.5 6.2-14.5 6.9-14.3 1.5-26.7-9.4-26.8-23.6 0-10 5.1-17.7 14.8-22.3 4.8-2.3 15.3-2 20.2.5zM470.2 609.7c-5 2.4-7.6 6.7-7.6 12.7-.2 14.7 17.9 20.2 26.8 8.3 3-4 2.9-12.1-.3-16.5-4.1-5.8-12.4-7.7-18.9-4.5zM594.2 609.7c-6.9 3.4-10 12.7-6.4 19.3 6.3 11.4 21.9 10.8 26.8-1 5.1-12.2-8.3-24.3-20.4-18.3z"/></svg>