<svg xmlns:xlink="http://www.w3.org/1999/xlink" version="1.1" style="font-family:'lucida grande', 'lucida sans unicode', arial, helvetica, sans-serif;font-size:12px;" xmlns="http://www.w3.org/2000/svg" width="1440" height="550"><desc>Created with Highcharts 4.2.5</desc><defs><clipPath id="highcharts-5"><rect x="0" y="0" width="1303" height="449"></rect></clipPath></defs><rect x="0" y="0" width="1440" height="550" fill="#FFFFFF" class=" highcharts-background"></rect><g class="highcharts-grid"></g><g class="highcharts-grid"><path fill="none" d="M 112 510.5 L 1415 510.5" stroke="#D8D8D8" stroke-width="1" opacity="1"></path><path fill="none" d="M 112 465.5 L 1415 465.5" stroke="#D8D8D8" stroke-width="1" opacity="1"></path><path fill="none" d="M 112 420.5 L 1415 420.5" stroke="#D8D8D8" stroke-width="1" opacity="1"></path><path fill="none" d="M 112 375.5 L 1415 375.5" stroke="#D8D8D8" stroke-width="1" opacity="1"></path><path fill="none" d="M 112 330.5 L 1415 330.5" stroke="#D8D8D8" stroke-width="1" opacity="1"></path><path fill="none" d="M 112 286.5 L 1415 286.5" stroke="#D8D8D8" stroke-width="1" opacity="1"></path><path fill="none" d="M 112 241.5 L 1415 241.5" stroke="#D8D8D8" stroke-width="1" opacity="1"></path><path fill="none" d="M 112 196.5 L 1415 196.5" stroke="#D8D8D8" stroke-width="1" opacity="1"></path><path fill="none" d="M 112 151.5 L 1415 151.5" stroke="#D8D8D8" stroke-width="1" opacity="1"></path><path fill="none" d="M 112 106.5 L 1415 106.5" stroke="#D8D8D8" stroke-width="1" opacity="1"></path><path fill="none" d="M 112 60.5 L 1415 60.5" stroke="#D8D8D8" stroke-width="1" opacity="1"></path></g><g class="highcharts-axis"><path fill="none" d="M 132.5 510 L 132.5 520" stroke="#C0D0E0" stroke-width="1" opacity="1"></path><path fill="none" d="M 240.5 510 L 240.5 520" stroke="#C0D0E0" stroke-width="1" opacity="1"></path><path fill="none" d="M 349.5 510 L 349.5 520" stroke="#C0D0E0" stroke-width="1" opacity="1"></path><path fill="none" d="M 454.5 510 L 454.5 520" stroke="#C0D0E0" stroke-width="1" opacity="1"></path><path fill="none" d="M 563.5 510 L 563.5 520" stroke="#C0D0E0" stroke-width="1" opacity="1"></path><path fill="none" d="M 669.5 510 L 669.5 520" stroke="#C0D0E0" stroke-width="1" opacity="1"></path><path fill="none" d="M 777.5 510 L 777.5 520" stroke="#C0D0E0" stroke-width="1" opacity="1"></path><path fill="none" d="M 886.5 510 L 886.5 520" stroke="#C0D0E0" stroke-width="1" opacity="1"></path><path fill="none" d="M 984.5 510 L 984.5 520" stroke="#C0D0E0" stroke-width="1" opacity="1"></path><path fill="none" d="M 1093.5 510 L 1093.5 520" stroke="#C0D0E0" stroke-width="1" opacity="1"></path><path fill="none" d="M 1198.5 510 L 1198.5 520" stroke="#C0D0E0" stroke-width="1" opacity="1"></path><path fill="none" d="M 1307.5 510 L 1307.5 520" stroke="#C0D0E0" stroke-width="1" opacity="1"></path><path fill="none" d="M 1412.5 510 L 1412.5 520" stroke="#C0D0E0" stroke-width="1" opacity="1"></path><path fill="none" d="M 112 510.5 L 1415 510.5" stroke="#C0D0E0" stroke-width="1"></path></g><g class="highcharts-axis"><text x="24.40625" text-anchor="middle" transform="translate(0,0) rotate(270 24.40625 285.5)" class=" highcharts-yaxis-title" style="color:#707070;fill:#707070;" y="285.5"><tspan>Hash Rate TH/s</tspan></text></g><g class="highcharts-series-group"><g class="highcharts-series highcharts-series-0" transform="translate(112,61) scale(1 1)" clip-path="url(#highcharts-5)"><path fill="none" d="M 12.774509803922 410.8759563979797 L 16.283990519285 400.07414404407393 L 19.793471234648 396.8971404105722 L 23.302951950011 389.5272668597479 L 26.812432665374 395.22146471360185 L 30.321913380737 400.5993182422417 L 33.8313940961 401.8646955430981 L 37.340874811463 404.07910581959686 L 40.850355526826 402.1810398683122 L 44.359836242189 396.8031863396724 L 47.869316957552 405.3444831204533 L 51.378797672915 386.68016793282095 L 54.888278388278 394.27243173795955 L 58.397759103641 393.0070544371031 L 61.907239819005 399.3339409413852 L 65.416720534368 399.0797324002786 L 68.926201249731 403.3893957901826 L 72.435681965094 390.4604056204706 L 75.945162680457 395.84748485785065 L 79.45464339582 389.74212838881994 L 82.964124111183 395.4883462420253 L 86.473604826546 390.81954423629594 L 89.983085541909 393.69265316289864 L 93.492566257272 391.5378214679466 L 97.002046972635 387.2281580780426 L 100.511527688 385.0733263830906 L 104.02100840336 395.84748485785065 L 107.53048911872 396.20662347367596 L 111.03996983409 389.863759182025 L 114.54945054945 391.39976543703733 L 118.05893126481 388.7117544907657 L 121.56841198018 392.55177012829654 L 125.07789269554 393.3197732558027 L 128.5873734109 391.78376700079036 L 132.09685412627 390.63176230953115 L 135.60633484163 396.00778420207433 L 139.11581555699 380.26372008819783 L 142.62529627236 381.031723215704 L 146.13477698772 395.23978107456816 L 149.64425770308 390.24776074577807 L 153.15373841844 386.02374354449415 L 156.66321913381 392.1261152584302 L 160.17269984917 393.77463365673657 L 163.68218056453 389.65333766097064 L 167.1916612799 393.36250405716 L 170.70114199526 388.0048192626643 L 174.21062271062 395.4231520550429 L 177.72010342599 386.35630086435793 L 181.22958414135 395.4231520550429 L 184.73906485671 375.2288016757899 L 188.24854557207 387.5926896630877 L 191.75802628744 386.7684304639345 L 195.2675070028 395.4231520550429 L 198.77698771816 401.60509604869185 L 202.28646843353 412.32046563768324 L 205.79594914889 383.47139366732176 L 209.30542986425 408.95568798129943 L 212.81491057962 408.95568798129943 L 216.32439129498 407.36977463402417 L 219.83387201034 387.5458577930833 L 223.34335272571 397.8542945503726 L 226.85283344107 389.92472781399624 L 230.36231415643 382.39163941443866 L 233.87179487179 384.3740310985328 L 237.38127558716 380.0127693935258 L 240.89075630252 383.9775527617139 L 244.40023701788 387.9423361299021 L 247.90971773325 379.6162910567069 L 251.41919844861 370.89376764669294 L 254.92867916397 382.27176832137116 L 258.43815987934 376.5051310158106 L 261.9476405947 376.91703368049355 L 265.45712131006 379.3884496685909 L 268.96660202543 392.1574322737606 L 272.47608274079 377.32893634517643 L 275.98556345615 371.56229903961594 L 279.49504417151 370.7384937102501 L 283.00452488688 377.32893634517643 L 286.51400560224 374.85752035707907 L 290.0234863176 379.3884496685909 L 293.53296703297 376.5051310158106 L 297.04244774833 386.44536084393496 L 300.55192846369 372.1612306429438 L 304.06140917906 391.37092298220784 L 307.57088989442 362.3101063663981 L 311.08037060978 380.5346862780076 L 314.58985132515 367.2356685046709 L 318.09933204051 377.5793489950439 L 321.60881275587 387.43047327158956 L 325.11829347123 381.0272424918349 L 328.6277741866 376.5942365673893 L 332.13725490196 361.8175501525708 L 335.64673561732 365.75799986318907 L 339.15621633269 381.0272424918349 L 342.66569704805 384.9676922024531 L 346.17517776341 373.74641428427566 L 349.68465847878 357.19062542681627 L 353.19413919414 381.7734634272863 L 356.7036199095 386.2886785702297 L 360.21310062487 369.2311991413322 L 363.72258134023 369.7328897127703 L 367.23206205559 357.69231599825446 L 370.74154277095 368.22781799845586 L 374.25102348632 368.729508569894 L 377.76050420168 379.26501057009546 L 381.26998491704 372.24134256996115 L 384.77946563241 380.7700822844099 L 388.28894634777 378.26162942721913 L 391.79842706313 344.8220046735649 L 395.3079077785 356.04117340102715 L 398.81738849386 361.3836346998187 L 402.32686920922 368.32883438824774 L 405.83634992459 353.90418888151055 L 409.34583063995 353.36994275163136 L 412.85531135531 367.2603421284894 L 416.36479207067 351.76720436199395 L 419.87427278604 357.64391179066456 L 423.3837535014 359.7808963101813 L 426.89323421676 350.1644659723565 L 430.40271493213 332.2618832228216 L 433.91219564749 381.55131030651916 L 437.42167636285 393.87366707744354 L 440.93115707822 349.1240556461918 L 444.44063779358 353.6638712986377 L 447.95011850894 359.5007771374966 L 451.45959922431 378.30858484048645 L 454.96907993967 351.71823601901804 L 458.47856065503 371.82313390842097 L 461.98804137039 364.689137883149 L 465.49752208576 357.55514185787695 L 469.00700280112 362.74350260352935 L 472.51648351648 347.82696545977876 L 476.02596423185 355.6095065782573 L 479.53544494721 349.77260073939834 L 483.04492566257 375.91092919024754 L 486.55440637794 400.2739527934984 L 490.0638870933 400.2739527934984 L 493.57336780866 363.72941738862215 L 497.08284852403 371.0383244695974 L 500.59232923939 356.4205103076469 L 504.10180995475 356.4205103076469 L 507.61129067011 347.2843764564278 L 511.12077138548 366.16571974894725 L 514.63025210084 351.5479055869967 L 518.1397328162 342.4117717357777 L 521.64921353157 343.62992291594026 L 525.15869424693 374.08370242000376 L 528.66817496229 353.37513235724055 L 532.17765567766 359.40644264444603 L 535.68713639302 355.19734934586296 L 539.19661710838 357.00124647382717 L 542.70609782374 346.7791627486969 L 546.21557853911 355.19734934586296 L 549.72505925447 344.97526562073267 L 553.23453996983 348.583059876661 L 556.7440206852 338.9622751941854 L 560.25350140056 352.1908541325894 L 563.76298211592 343.17136849276847 L 567.27246283129 340.1648732794949 L 570.78194354665 341.9687704074591 L 574.29142426201 315.4873709910281 L 577.80090497738 341.7637926576875 L 581.31038569274 338.2129248648956 L 584.8198664081 325.42980081084517 L 588.32934712346 332.5315363964288 L 591.83882783883 327.56032148652025 L 595.34830855419 338.2129248648956 L 598.85778926955 316.90771810814476 L 602.36726998492 317.61789166670314 L 605.87675070028 328.98066860363696 L 609.38623141564 327.56032148652025 L 612.89571213101 317.61789166670314 L 616.40519284637 296.8205266636762 L 619.91467356173 331.9388666643663 L 623.4241542771 335.28347047395584 L 626.93363499246 338.62807428354535 L 630.44311570782 319.39660237840553 L 633.95259642318 332.77501761676365 L 637.46207713855 321.9050552355977 L 640.97155785391 336.1196214263532 L 644.48103856927 330.26656475957157 L 647.99051928464 318.5604514260081 L 651.5 324.4135080927898 L 655.00948071536 311.0350928544317 L 658.51896143073 326.0858099975846 L 662.02844214609 312.7073947592264 L 665.53792286145 314.5192829819991 L 669.04740357682 301.5884448071913 L 672.55688429218 313.65722710367857 L 676.06636500754 304.1746124421528 L 679.5758457229 325.7260094001658 L 683.08532643827 304.1746124421528 L 686.59480715363 309.3469477120759 L 690.10428786899 305.8987241987939 L 693.61376858436 307.62283595543494 L 697.12324929972 305.8987241987939 L 700.63273001508 282.6232154841399 L 704.14221073045 295.5540536589477 L 707.65169144581 300.81842375848953 L 711.16117216117 294.85138041990524 L 714.67065287654 299.8239165353922 L 718.1801335919 290.87335152751564 L 721.68961430726 282.91729374273666 L 725.19909502262 276.95025040415226 L 728.70857573799 284.90630818893135 L 732.21805645335 271.9777142886654 L 735.72753716871 263.0271492807889 L 739.23701788408 282.91729374273666 L 742.74649859944 272.97222151176277 L 746.2559793148 273.9667287348601 L 749.76546003017 265.40256588831505 L 753.27494074553 268.8885931182838 L 756.78442146089 266.56457496497126 L 760.29390217626 265.40256588831505 L 763.80338289162 277.0226566548773 L 767.31286360698 254.9444841984089 L 770.82234432234 313.04493803122057 L 774.33182503771 263.07854773500253 L 777.84130575307 253.78247512175264 L 781.35078646843 265.40256588831505 L 784.8602671838 242.1623843551904 L 788.36974789916 234.02832081859665 L 791.87922861452 230.84759095250467 L 795.38870932989 268.0618254370774 L 798.89819004525 280.89432008693007 L 802.40767076061 275.761322226989 L 805.91715147598 265.4953265071068 L 809.42663219134 255.22933078722468 L 812.9361129067 235.98058881244572 L 816.44559362206 238.54708774241627 L 819.95507433743 219.29834576763722 L 823.46455505279 280.89432008693007 L 826.97403576815 247.5298339973131 L 830.48351648352 257.79582971719526 L 833.99299719888 241.11358667238684 L 837.50247791424 241.11358667238684 L 841.01195862961 259.70879597862233 L 844.52143934497 222.11905333607925 L 848.03092006033 248.9688695093243 L 851.54040077569 250.31136031798653 L 855.04988149106 254.33883274397326 L 858.55936220642 219.4340717187547 L 862.06884292178 259.70879597862233 L 865.57832363715 234.20147061403947 L 869.08780435251 240.91392465735075 L 872.59728506787 227.4890165707282 L 876.10676578324 239.57143384868846 L 879.6162464986 207.35165444079442 L 883.12572721396 250.31136031798653 L 886.63520792933 230.1308216161869 L 890.14468864469 219.8483769941285 L 893.65416936005 218.37945633383447 L 897.16365007541 211.03485303236425 L 900.67313079078 234.53758359706902 L 904.18261150614 243.35110755883335 L 907.6920922215 224.2551389750107 L 911.20157293687 212.50377369265829 L 914.71105365223 216.91053567354044 L 918.22053436759 237.47542491765705 L 921.73001508296 237.47542491765705 L 925.23949579832 219.8483769941285 L 928.74897651368 230.1308216161869 L 932.25845722905 215.60341255842502 L 935.76793794441 209.42072150037006 L 939.27741865977 252.69955890675476 L 942.78689937513 214.05773979391128 L 946.2963800905 227.9687946745349 L 949.80586080586 243.42552231967235 L 953.31534152122 207.87504873585627 L 956.82482223659 240.33417679064488 L 960.33430295195 217.1490853229388 L 963.84378366731 214.05773979391128 L 967.35326438268 240.33417679064488 L 970.86274509804 214.05773979391128 L 974.3722258134 198.60101214877386 L 977.88170652877 251.15388614224108 L 981.39118724413 195.0923479328517 L 984.90066795949 204.4963350464498 L 988.41014867485 193.52501674725207 L 991.91962939022 218.60231571684693 L 995.42911010558 204.4963350464498 L 998.93859082094 232.7082963872441 L 1002.4480715363 166.88038659205745 L 1005.9575522517 196.65967911845132 L 1009.467032967 218.60231571684693 L 1012.9765136824 191.9576855616524 L 1016.4859943978 196.65967911845132 L 1019.9954751131 207.63099741764913 L 1023.5049558285 190.3903543760527 L 1027.0144365438 214.20059985513657 L 1030.5239172592 169.64012975465158 L 1034.0333979746 207.34514291660042 L 1037.5428786899 171.35399398928558 L 1041.0523594053 174.78172245855365 L 1044.5618401207 143.93216623514098 L 1048.071320836 214.20059985513657 L 1051.5808015514 176.49558669318776 L 1055.0902822668 174.78172245855365 L 1058.5997629821 186.778772100992 L 1062.1092436975 176.49558669318776 L 1065.6187244128 238.1946991400131 L 1069.1282051282 207.34514291660042 L 1072.6376858436 194.04750991421685 L 1076.1471665589 219.18367090858987 L 1079.6566472743 165.32046877779067 L 1083.1661279897 170.70678899087056 L 1086.675608705 165.32046877779067 L 1090.1850894204 197.63839005627014 L 1093.6945701357 177.88854927497704 L 1097.2040508511 201.22927019832343 L 1100.7135315665 159.93414856471065 L 1104.2230122818 203.02471026935 L 1107.7324929972 179.68398934600373 L 1111.2419737126 199.43383012729677 L 1114.7514544279 161.7295886357373 L 1118.2609351433 172.5022290618972 L 1121.7704158587 214.07286250112415 L 1125.279896574 143.77970324949206 L 1128.7893772894 175.2266429146959 L 1132.2988580047 204.82376259959364 L 1135.8083387201 178.92628287530812 L 1139.3178194355 117.88222352520654 L 1142.8273001508 204.82376259959364 L 1146.3367808662 175.2266429146959 L 1149.8462615816 164.1277230328593 L 1153.3557422969 182.62592283592033 L 1156.8652230123 158.57826309194093 L 1160.3747037276 169.67718297377763 L 1163.884184443 149.32916319041044 L 1167.3936651584 174.06610806125832 L 1170.9031458737 110.61982530616405 L 1174.4126265891 137.53643011135563 L 1177.9221073045 133.69120085347106 L 1181.4315880198 149.07211788500905 L 1184.9410687352 181.7565665770273 L 1188.4505494505 114.46505456404861 L 1191.9600301659 122.15551307981758 L 1195.4695108813 129.8459715955866 L 1198.9789915966 156.76257640077807 L 1202.488472312 135.61381548241343 L 1205.9979530274 97.16152290356831 L 1209.5074337427 63.033672271076966 L 1213.0169144581 124.78828470770475 L 1216.5263951735 133.61037219865153 L 1220.0358758888 129.1993284531781 L 1223.5453566042 133.61037219865153 L 1227.0548373195 168.8987221624388 L 1230.5643180349 140.22693781686172 L 1234.0737987503 129.1993284531781 L 1237.5832794656 133.61037219865153 L 1241.092760181 111.55515347128454 L 1244.6022408964 111.55515347128454 L 1248.1117216117 82.88336912570747 L 1251.6212023271 102.73306598033776 L 1255.1306830424 87.2944128711809 L 1258.6401637578 97.67908665792396 L 1262.1496444732 97.67908665792396 L 1265.6591251885 63.68028859256174 L 1269.1686059039 106.74543280868716 L 1272.6780866193 86.34615396946987 L 1276.1875673346 61.413702054870896 L 1279.69704805 93.14591358254228 L 1283.2065287654 118.07836549714136 L 1286.7160094807 174.74302893941154 L 1290.2254901961 93.14591358254228" stroke="#039bd3" stroke-width="2" stroke-linejoin="round" stroke-linecap="round"></path></g><g class="highcharts-markers highcharts-series-0" transform="translate(112,61) scale(1 1)" clip-path="none"></g></g><text x="720" text-anchor="middle" class="highcharts-title" style="color:#333333;font-size:18px;fill:#333333;width:1376px;" y="24"><tspan>Hash Rate</tspan></text><g class="highcharts-legend"><g><g></g></g></g><g class="highcharts-axis-labels highcharts-xaxis-labels"><text x="132.52461305034834" style="color:#606060;cursor:default;font-size:11px;fill:#606060;width:107px;text-overflow:clip;" text-anchor="middle" transform="translate(0,0)" y="529" opacity="1"><tspan>Jul '17</tspan></text><text x="241.31851522660347" style="color:#606060;cursor:default;font-size:11px;fill:#606060;width:107px;text-overflow:clip;" text-anchor="middle" transform="translate(0,0)" y="529" opacity="1"><tspan>Aug '17</tspan></text><text x="350.11241740285857" style="color:#606060;cursor:default;font-size:11px;fill:#606060;width:107px;text-overflow:clip;" text-anchor="middle" transform="translate(0,0)" y="529" opacity="1"><tspan>Sep '17</tspan></text><text x="455.39683886375065" style="color:#606060;cursor:default;font-size:11px;fill:#606060;width:107px;text-overflow:clip;" text-anchor="middle" transform="translate(0,0)" y="529" opacity="1"><tspan>Oct '17</tspan></text><text x="564.336969403146" style="color:#606060;cursor:default;font-size:11px;fill:#606060;width:107px;text-overflow:clip;" text-anchor="middle" transform="translate(0,0)" y="529" opacity="1"><tspan>Nov '17</tspan></text><text x="669.621390864038" style="color:#606060;cursor:default;font-size:11px;fill:#606060;width:107px;text-overflow:clip;" text-anchor="middle" transform="translate(0,0)" y="529" opacity="1"><tspan>Dec '17</tspan></text><text x="778.4152930402931" style="color:#606060;cursor:default;font-size:11px;fill:#606060;width:107px;text-overflow:clip;" text-anchor="middle" transform="translate(0,0)" y="529" opacity="1"><tspan>Jan '18</tspan></text><text x="887.2091952165482" style="color:#606060;cursor:default;font-size:11px;fill:#606060;width:107px;text-overflow:clip;" text-anchor="middle" transform="translate(0,0)" y="529" opacity="1"><tspan>Feb '18</tspan></text><text x="985.4746552467142" style="color:#606060;cursor:default;font-size:11px;fill:#606060;width:107px;text-overflow:clip;" text-anchor="middle" transform="translate(0,0)" y="529" opacity="1"><tspan>Mar '18</tspan></text><text x="1094.2685574229693" style="color:#606060;cursor:default;font-size:11px;fill:#606060;width:107px;text-overflow:clip;" text-anchor="middle" transform="translate(0,0)" y="529" opacity="1"><tspan>Apr '18</tspan></text><text x="1199.4067505207213" style="color:#606060;cursor:default;font-size:11px;fill:#606060;width:107px;text-overflow:clip;" text-anchor="middle" transform="translate(0,0)" y="529" opacity="1"><tspan>May '18</tspan></text><text x="1308.2006526969762" style="color:#606060;cursor:default;font-size:11px;fill:#606060;width:107px;text-overflow:clip;" text-anchor="middle" transform="translate(0,0)" y="529" opacity="1"><tspan>Jun '18</tspan></text><text x="1412.84375" style="color:#606060;cursor:default;font-size:11px;fill:#606060;width:107px;text-overflow:clip;" text-anchor="middle" transform="translate(0,0)" y="529" opacity="1"><tspan>Jul '18</tspan></text></g><g class="highcharts-axis-labels highcharts-yaxis-labels"><text x="0" style="color:#606060;cursor:default;font-size:11px;fill:#606060;width:465px;text-overflow:clip;" text-anchor="end" transform="translate(0,0)" y="-9999">0.0000</text><text x="97" style="color:#606060;cursor:default;font-size:11px;fill:#606060;width:465px;text-overflow:clip;" text-anchor="end" transform="translate(0,0)" y="470" opacity="1">5,000,000</text><text x="97" style="color:#606060;cursor:default;font-size:11px;fill:#606060;width:465px;text-overflow:clip;" text-anchor="end" transform="translate(0,0)" y="425" opacity="1">10,000,000</text><text x="97" style="color:#606060;cursor:default;font-size:11px;fill:#606060;width:465px;text-overflow:clip;" text-anchor="end" transform="translate(0,0)" y="380" opacity="1">15,000,000</text><text x="97" style="color:#606060;cursor:default;font-size:11px;fill:#606060;width:465px;text-overflow:clip;" text-anchor="end" transform="translate(0,0)" y="335" opacity="1">20,000,000</text><text x="97" style="color:#606060;cursor:default;font-size:11px;fill:#606060;width:465px;text-overflow:clip;" text-anchor="end" transform="translate(0,0)" y="290" opacity="1">25,000,000</text><text x="97" style="color:#606060;cursor:default;font-size:11px;fill:#606060;width:465px;text-overflow:clip;" text-anchor="end" transform="translate(0,0)" y="245" opacity="1">30,000,000</text><text x="97" style="color:#606060;cursor:default;font-size:11px;fill:#606060;width:465px;text-overflow:clip;" text-anchor="end" transform="translate(0,0)" y="200" opacity="1">35,000,000</text><text x="97" style="color:#606060;cursor:default;font-size:11px;fill:#606060;width:465px;text-overflow:clip;" text-anchor="end" transform="translate(0,0)" y="155" opacity="1">40,000,000</text><text x="97" style="color:#606060;cursor:default;font-size:11px;fill:#606060;width:465px;text-overflow:clip;" text-anchor="end" transform="translate(0,0)" y="110" opacity="1">45,000,000</text><text x="97" style="color:#606060;cursor:default;font-size:11px;fill:#606060;width:465px;text-overflow:clip;" text-anchor="end" transform="translate(0,0)" y="66" opacity="1">50,000,000</text></g><g class="highcharts-tooltip" style="cursor:default;padding:0;pointer-events:none;white-space:nowrap;" transform="translate(0,-9999)"><path fill="none" d="M 3.5 0.5 L 13.5 0.5 C 16.5 0.5 16.5 0.5 16.5 3.5 L 16.5 13.5 C 16.5 16.5 16.5 16.5 13.5 16.5 L 3.5 16.5 C 0.5 16.5 0.5 16.5 0.5 13.5 L 0.5 3.5 C 0.5 0.5 0.5 0.5 3.5 0.5"  stroke="black" stroke-opacity="0.049999999999999996" stroke-width="5" transform="translate(1, 1)"></path><path fill="none" d="M 3.5 0.5 L 13.5 0.5 C 16.5 0.5 16.5 0.5 16.5 3.5 L 16.5 13.5 C 16.5 16.5 16.5 16.5 13.5 16.5 L 3.5 16.5 C 0.5 16.5 0.5 16.5 0.5 13.5 L 0.5 3.5 C 0.5 0.5 0.5 0.5 3.5 0.5"  stroke="black" stroke-opacity="0.09999999999999999" stroke-width="3" transform="translate(1, 1)"></path><path fill="none" d="M 3.5 0.5 L 13.5 0.5 C 16.5 0.5 16.5 0.5 16.5 3.5 L 16.5 13.5 C 16.5 16.5 16.5 16.5 13.5 16.5 L 3.5 16.5 C 0.5 16.5 0.5 16.5 0.5 13.5 L 0.5 3.5 C 0.5 0.5 0.5 0.5 3.5 0.5"  stroke="black" stroke-opacity="0.15" stroke-width="1" transform="translate(1, 1)"></path><path fill="rgb(249, 249, 249)" fill-opacity=" .85" d="M 3.5 0.5 L 13.5 0.5 C 16.5 0.5 16.5 0.5 16.5 3.5 L 16.5 13.5 C 16.5 16.5 16.5 16.5 13.5 16.5 L 3.5 16.5 C 0.5 16.5 0.5 16.5 0.5 13.5 L 0.5 3.5 C 0.5 0.5 0.5 0.5 3.5 0.5"></path><text x="8" style="font-size:12px;color:#333333;fill:#333333;" y="20"></text></g></svg>