<svg xmlns="http://www.w3.org/2000/svg" viewBox="0 0 50.715 50.715">
  <defs>
    <style>
      .cls-1 {
        fill: #fff;
      }

      .cls-1, .cls-2 {
        stroke: #a3a1fb;
      }

      .cls-2, .cls-5 {
        fill: none;
      }

      .cls-2 {
        stroke-miterlimit: 10;
      }

      .cls-3 {
        fill: #a3a1fb;
      }

      .cls-4 {
        stroke: none;
      }
    </style>
  </defs>
  <g id="Icon" transform="translate(0 0)">
    <g id="Icon.BG" class="cls-1" transform="translate(0 0)">
      <circle class="cls-4" cx="25.358" cy="25.358" r="25.358"/>
      <circle class="cls-5" cx="25.358" cy="25.358" r="24.858"/>
    </g>
    <g id="Group_228" data-name="Group 228" transform="translate(11.462 11.74)">
      <path id="Path_269" data-name="Path 269" class="cls-2" d="M35.561,22.775A12.78,12.78,0,1,1,22.775,10,12.782,12.782,0,0,1,35.561,22.775Z" transform="translate(-8.871 -8.871)"/>
      <path id="Path_270" data-name="Path 270" class="cls-3" d="M13.9,1.129A12.786,12.786,0,1,1,1.129,13.9,12.782,12.782,0,0,1,13.9,1.129M13.9,0a13.612,13.612,0,0,0-2.8.282A13.173,13.173,0,0,0,8.5,1.095,13.663,13.663,0,0,0,6.139,2.381,13.871,13.871,0,0,0,2.392,6.128a13.089,13.089,0,0,0-1.3,2.37A13.964,13.964,0,0,0,.282,11.1a14.023,14.023,0,0,0,0,5.6,13.173,13.173,0,0,0,.813,2.607,13.663,13.663,0,0,0,1.286,2.359,13.871,13.871,0,0,0,3.747,3.747A13.662,13.662,0,0,0,8.486,26.7a13.964,13.964,0,0,0,2.607.813,14.023,14.023,0,0,0,5.6,0A13.173,13.173,0,0,0,19.3,26.7a13.662,13.662,0,0,0,2.359-1.286A13.871,13.871,0,0,0,25.4,21.667a13.663,13.663,0,0,0,1.286-2.359A13.964,13.964,0,0,0,27.5,16.7a14.023,14.023,0,0,0,0-5.6A13.173,13.173,0,0,0,26.689,8.5,13.663,13.663,0,0,0,25.4,6.139a13.871,13.871,0,0,0-3.747-3.747A13.663,13.663,0,0,0,19.3,1.106,13.964,13.964,0,0,0,16.691.293,12.7,12.7,0,0,0,13.9,0Z" transform="translate(0 0)"/>
      <rect id="Rectangle_146" data-name="Rectangle 146" class="cls-3" width="0.576" height="7.268" transform="matrix(0.866, -0.5, 0.5, 0.866, 13.635, 14.377)"/>
      <path id="Path_271" data-name="Path 271" class="cls-3" d="M80.994,80.338h0l-4.254-4.4a.621.621,0,0,0-.5-.237.647.647,0,0,0-.44,1.117l4.266,4.412c.011.011.023.023.034.023a.665.665,0,0,0,.44.169.643.643,0,0,0,.643-.643A.74.74,0,0,0,80.994,80.338Z" transform="translate(-67.069 -67.157)"/>
      <path id="Path_272" data-name="Path 272" class="cls-3" d="M131.874,111.584h0l-5.53.688a.579.579,0,0,0-.44.237.592.592,0,0,0,.124.824.624.624,0,0,0,.463.113l5.541-.688a.041.041,0,0,0,.034-.011.57.57,0,0,0,.361-.226.579.579,0,0,0-.124-.813A.616.616,0,0,0,131.874,111.584Z" transform="translate(-111.595 -98.99)"/>
      <path id="Path_273" data-name="Path 273" class="cls-3" d="M122.527,22.584h0a.327.327,0,0,1-.327-.327v-1.93a.327.327,0,0,1,.327-.327h0a.328.328,0,0,1,.327.327v1.93A.328.328,0,0,1,122.527,22.584Z" transform="translate(-108.41 -17.743)"/>
      <path id="Path_274" data-name="Path 274" class="cls-3" d="M181.068,52.7h0a.334.334,0,0,1,0-.463l1.365-1.365a.334.334,0,0,1,.463,0h0a.334.334,0,0,1,0,.463L181.531,52.7A.314.314,0,0,1,181.068,52.7Z" transform="translate(-160.552 -45.045)"/>
      <path id="Path_275" data-name="Path 275" class="cls-3" d="M204,122.227h0a.327.327,0,0,1,.327-.327h1.93a.327.327,0,0,1,.327.327h0a.327.327,0,0,1-.327.327h-1.93A.327.327,0,0,1,204,122.227Z" transform="translate(-180.979 -108.144)"/>
      <path id="Path_276" data-name="Path 276" class="cls-3" d="M179.668,178.968h0a.334.334,0,0,1,.463,0l1.365,1.365a.334.334,0,0,1,0,.463h0a.334.334,0,0,1-.463,0l-1.365-1.365A.334.334,0,0,1,179.668,178.968Z" transform="translate(-159.31 -158.689)"/>
      <path id="Path_277" data-name="Path 277" class="cls-3" d="M122.727,203.8h0a.328.328,0,0,1,.327.327v1.93a.328.328,0,0,1-.327.327h0a.328.328,0,0,1-.327-.327v-1.93A.328.328,0,0,1,122.727,203.8Z" transform="translate(-108.587 -180.801)"/>
      <path id="Path_278" data-name="Path 278" class="cls-3" d="M53.2,181.2h0a.334.334,0,0,1,0,.463l-1.365,1.377a.334.334,0,0,1-.463,0h0a.334.334,0,0,1,0-.463l1.365-1.377A.314.314,0,0,1,53.2,181.2Z" transform="translate(-45.489 -160.663)"/>
      <path id="Path_279" data-name="Path 279" class="cls-3" d="M23.184,122.527h0a.328.328,0,0,1-.327.327l-1.93.011a.327.327,0,0,1-.327-.327h0a.328.328,0,0,1,.327-.327l1.93-.011A.327.327,0,0,1,23.184,122.527Z" transform="translate(-18.275 -108.41)"/>
      <path id="Path_280" data-name="Path 280" class="cls-3" d="M51.8,52.085h0a.334.334,0,0,1-.463,0l-1.365-1.354a.334.334,0,0,1,0-.463h0a.334.334,0,0,1,.463,0L51.8,51.622A.314.314,0,0,1,51.8,52.085Z" transform="translate(-44.247 -44.513)"/>
      <path id="Path_281" data-name="Path 281" class="cls-3" d="M116.082,116.5a.982.982,0,1,1-.982.982.982.982,0,0,1,.982-.982" transform="translate(-102.111 -103.353)"/>
    </g>
  </g>
</svg>
