<?xml version="1.0" encoding="iso-8859-1"?>
<!-- Generator: Adobe Illustrator 20.1.0, SVG Export Plug-In . SVG Version: 6.00 Build 0)  -->
<svg xmlns="http://www.w3.org/2000/svg" xmlns:xlink="http://www.w3.org/1999/xlink" version="1.1" id="&#1057;&#1083;&#1086;&#1081;_1" x="0px" y="0px" viewBox="0 0 64 64" style="enable-background:new 0 0 64 64;" xml:space="preserve">
<linearGradient id="SVGID_1__43615" gradientUnits="userSpaceOnUse" x1="34" y1="41.75" x2="34" y2="46.6184" spreadMethod="reflect">
	<stop offset="0" style="stop-color:#6DC7FF"/>
	<stop offset="1" style="stop-color:#E6ABFF"/>
</linearGradient>
<path style="fill:url(#SVGID_1__43615);" d="M44,46H24c-0.552,0-1-0.448-1-1v-2c0-0.552,0.448-1,1-1h20c0.552,0,1,0.448,1,1v2  C45,45.552,44.552,46,44,46z"/>
<linearGradient id="SVGID_2__43615" gradientUnits="userSpaceOnUse" x1="32" y1="6" x2="32" y2="58.2501" spreadMethod="reflect">
	<stop offset="0" style="stop-color:#1A6DFF"/>
	<stop offset="1" style="stop-color:#C822FF"/>
</linearGradient>
<path style="fill:url(#SVGID_2__43615);" d="M50,14h-2v-1c0-1.654-1.346-3-3-3H32.899C32.434,7.721,30.415,6,28,6s-4.434,1.721-4.899,4H14  c-1.654,0-3,1.346-3,3v36c0,1.654,1.346,3,3,3h1v3c0,1.654,1.346,3,3,3h32c1.654,0,3-1.346,3-3V17C53,15.346,51.654,14,50,14z   M14,50c-0.552,0-1-0.448-1-1V13c0-0.552,0.448-1,1-1h9v2h-5c-1.654,0-3,1.346-3,3v33H14z M51,55c0,0.552-0.448,1-1,1H18  c-0.552,0-1-0.448-1-1V17c0-0.552,0.448-1,1-1h5v3c0,2.757,2.243,5,5,5s5-2.243,5-5v-1.002c0-1.654-1.346-3-3-3s-3,1.346-3,3V20h2  v-2.002c0-0.552,0.448-1,1-1s1,0.448,1,1V19c0,1.654-1.346,3-3,3s-3-1.346-3-3v-7v-1c0-1.654,1.346-3,3-3s3,1.346,3,3v1h2h12  c0.552,0,1,0.448,1,1v1H35v2h15c0.552,0,1,0.448,1,1V55z"/>
<linearGradient id="SVGID_3__43615" gradientUnits="userSpaceOnUse" x1="40" y1="6" x2="40" y2="58.2501" spreadMethod="reflect">
	<stop offset="0" style="stop-color:#1A6DFF"/>
	<stop offset="1" style="stop-color:#C822FF"/>
</linearGradient>
<rect x="35" y="18" style="fill:url(#SVGID_3__43615);" width="10" height="2"/>
<linearGradient id="SVGID_4__43615" gradientUnits="userSpaceOnUse" x1="40" y1="6" x2="40" y2="58.2501" spreadMethod="reflect">
	<stop offset="0" style="stop-color:#1A6DFF"/>
	<stop offset="1" style="stop-color:#C822FF"/>
</linearGradient>
<rect x="35" y="22" style="fill:url(#SVGID_4__43615);" width="10" height="2"/>
<linearGradient id="SVGID_5__43615" gradientUnits="userSpaceOnUse" x1="34" y1="6" x2="34" y2="58.2501" spreadMethod="reflect">
	<stop offset="0" style="stop-color:#1A6DFF"/>
	<stop offset="1" style="stop-color:#C822FF"/>
</linearGradient>
<rect x="23" y="30" style="fill:url(#SVGID_5__43615);" width="22" height="2"/>
<linearGradient id="SVGID_6__43615" gradientUnits="userSpaceOnUse" x1="34" y1="6" x2="34" y2="58.2501" spreadMethod="reflect">
	<stop offset="0" style="stop-color:#1A6DFF"/>
	<stop offset="1" style="stop-color:#C822FF"/>
</linearGradient>
<rect x="23" y="34" style="fill:url(#SVGID_6__43615);" width="22" height="2"/>
<linearGradient id="SVGID_7__43615" gradientUnits="userSpaceOnUse" x1="34" y1="6" x2="34" y2="58.2501" spreadMethod="reflect">
	<stop offset="0" style="stop-color:#1A6DFF"/>
	<stop offset="1" style="stop-color:#C822FF"/>
</linearGradient>
<rect x="23" y="38" style="fill:url(#SVGID_7__43615);" width="22" height="2"/>
</svg>
