<svg xmlns="http://www.w3.org/2000/svg" viewBox="0 0 50.715 50.715">
  <defs>
    <style>
      .cls-1 {
        fill: #fff;
      }

      .cls-2, .cls-4 {
        fill: #ff7285;
      }

      .cls-3, .cls-4 {
        stroke: none;
      }
    </style>
  </defs>
  <g id="Group_231" data-name="Group 231" transform="translate(-26.692 -30.696)">
    <g id="Icon" transform="translate(26.692 30.696)">
      <g id="Icon.BG" class="cls-1" transform="translate(0 0)">
        <path class="cls-3" d="M 25.35769271850586 50.21538162231445 C 22.0017032623291 50.21538162231445 18.74637222290039 49.55822372436523 15.68211269378662 48.26215362548828 C 12.72213268280029 47.01018142700195 10.06370258331299 45.21778106689453 7.780652523040771 42.93473434448242 C 5.497602939605713 40.65168380737305 3.70520281791687 37.99325180053711 2.453232765197754 35.03327178955078 C 1.157162666320801 31.96901321411133 0.5000027418136597 28.71368217468262 0.5000027418136597 25.35769271850586 C 0.5000027418136597 22.0017032623291 1.157162666320801 18.74637222290039 2.453232765197754 15.68211269378662 C 3.70520281791687 12.72213268280029 5.497602939605713 10.06370258331299 7.780652523040771 7.780652523040771 C 10.06370258331299 5.497602939605713 12.72213268280029 3.70520281791687 15.68211269378662 2.453232765197754 C 18.74637222290039 1.157162666320801 22.0017032623291 0.5000027418136597 25.35769271850586 0.5000027418136597 C 28.71368217468262 0.5000027418136597 31.96901321411133 1.157162666320801 35.03327178955078 2.453232765197754 C 37.99325180053711 3.70520281791687 40.65168380737305 5.497602939605713 42.93473434448242 7.780652523040771 C 45.21778106689453 10.06370258331299 47.01018142700195 12.72213268280029 48.26215362548828 15.68211269378662 C 49.55822372436523 18.74637222290039 50.21538162231445 22.0017032623291 50.21538162231445 25.35769271850586 C 50.21538162231445 28.71368217468262 49.55822372436523 31.96901321411133 48.26215362548828 35.03327178955078 C 47.01018142700195 37.99325180053711 45.21778106689453 40.65168380737305 42.93473434448242 42.93473434448242 C 40.65168380737305 45.21778106689453 37.99325180053711 47.01018142700195 35.03327178955078 48.26215362548828 C 31.96901321411133 49.55822372436523 28.71368217468262 50.21538162231445 25.35769271850586 50.21538162231445 Z"/>
        <path class="cls-4" d="M 25.35769271850586 1.000003814697266 C 22.06898307800293 1.000003814697266 18.87918281555176 1.643871307373047 15.87688446044922 2.913742065429688 C 12.97651290893555 4.140491485595703 10.37149429321289 5.89691162109375 8.134201049804688 8.134201049804688 C 5.89691162109375 10.37149429321289 4.140491485595703 12.97651290893555 2.913742065429688 15.87688446044922 C 1.643871307373047 18.87918281555176 1.000003814697266 22.06898307800293 1.000003814697266 25.35769271850586 C 1.000003814697266 28.64640235900879 1.643871307373047 31.83620262145996 2.913742065429688 34.83849334716797 C 4.140491485595703 37.73887252807617 5.89691162109375 40.34389495849609 8.134201049804688 42.58118438720703 C 10.37149429321289 44.81847381591797 12.97651290893555 46.57489395141602 15.87688446044922 47.80164337158203 C 18.87918281555176 49.07151412963867 22.06898307800293 49.71538162231445 25.35769271850586 49.71538162231445 C 28.64640235900879 49.71538162231445 31.83620262145996 49.07151412963867 34.83849334716797 47.80164337158203 C 37.73887252807617 46.57489395141602 40.3438835144043 44.81847381591797 42.58118438720703 42.58118438720703 C 44.81847381591797 40.3438835144043 46.57489395141602 37.73887252807617 47.80164337158203 34.83849334716797 C 49.07151412963867 31.83620262145996 49.71538162231445 28.64640235900879 49.71538162231445 25.35769271850586 C 49.71538162231445 22.06898307800293 49.07151412963867 18.87918281555176 47.80164337158203 15.87688446044922 C 46.57489395141602 12.97651290893555 44.81847381591797 10.37149429321289 42.58118438720703 8.134201049804688 C 40.34389495849609 5.89691162109375 37.73887252807617 4.140491485595703 34.83849334716797 2.913742065429688 C 31.83620262145996 1.643871307373047 28.64640235900879 1.000003814697266 25.35769271850586 1.000003814697266 M 25.35769271850586 3.814697265625e-06 C 39.36235046386719 3.814697265625e-06 50.71538162231445 11.35302352905273 50.71538162231445 25.35769271850586 C 50.71538162231445 39.36235046386719 39.36235046386719 50.71538162231445 25.35769271850586 50.71538162231445 C 11.35302352905273 50.71538162231445 3.814697265625e-06 39.36235046386719 3.814697265625e-06 25.35769271850586 C 3.814697265625e-06 11.35302352905273 11.35302352905273 3.814697265625e-06 25.35769271850586 3.814697265625e-06 Z"/>
      </g>
    </g>
    <g id="Group_230" data-name="Group 230" transform="translate(41.446 44.457)">
      <path id="Path_265" data-name="Path 265" class="cls-2" d="M16.725,110.308c0,.009-.811,4.954,2.29,7.235l.3.214a5.433,5.433,0,0,0,3.671,1.042,8.316,8.316,0,0,0,3.306-1.069s3.029-1.461,2.183-4.357a2.89,2.89,0,0,0-.356-.748,6.212,6.212,0,0,0-1.1-1.265c-.062-.053-.677-.543-.74-.588a5.613,5.613,0,0,1-2.219-2.521c-.356-1.336-.027-2.174.882-2.619,0,0,1.515-.82,4.107.722A17.9,17.9,0,0,1,31,107.769h0l.659-.561h0a8.1,8.1,0,0,0-4.687-2.709,4.1,4.1,0,0,0-3.234.775,2.784,2.784,0,0,0-.927,2.014,4.2,4.2,0,0,0,1.149,2.735c.027.027,1.31,1.14,1.345,1.167a9.157,9.157,0,0,1,1.782,1.782,2.449,2.449,0,0,1-.267,3.181h0a7.019,7.019,0,0,1-3.448,1.613,3,3,0,0,1-.891.053,5.579,5.579,0,0,1-4.063-2.343h0s-1-1.14-.757-5.061h0s1.559-.472,3.011-3.671a12.04,12.04,0,0,0,.731-2.6h0l-1.319,2.1h0a5.226,5.226,0,0,1-2.281,3.109h0s-.695.347-1.114.036a5.706,5.706,0,0,1-1.942-2.637h0s-.1.036-.33-.846h0L13.1,104h0c-.018.018,1.417,5.889,3.626,6.308Z" transform="translate(-11.945 -94.734)"/>
      <path id="Path_266" data-name="Path 266" class="cls-2" d="M.03,12.692s.606,6.62,5.079,7.431c0,0,4.152.4,5.417-6.95.009-.062.036-.419.045-.481.107-.606.579-4.473-2.967-5.177l-.2.517s4.553.125,1.568,8.045c0,0-3.626,8.045-7.475,0a13.148,13.148,0,0,1-.855-5.212,3.416,3.416,0,0,1,1.3-2.459,1.485,1.485,0,0,1,.918-.374V7.489a2.387,2.387,0,0,0-1.684.766,3.542,3.542,0,0,0-1.034,1.9A8.764,8.764,0,0,0,.03,12.692Z" transform="translate(0 -6.821)"/>
      <circle id="Ellipse_29" data-name="Ellipse 29" class="cls-2" cx="0.766" cy="0.766" r="0.766" transform="translate(2.667 0)"/>
      <circle id="Ellipse_30" data-name="Ellipse 30" class="cls-2" cx="0.766" cy="0.766" r="0.766" transform="translate(6.57 0)"/>
      <path id="Path_267" data-name="Path 267" class="cls-2" d="M223.907,147.875a.973.973,0,0,0-.944-.775.935.935,0,0,0-.419.1h0a.505.505,0,0,0-.116.071.009.009,0,0,0-.009.009.833.833,0,0,0-.134.116h0a.963.963,0,0,0-.285.686.947.947,0,0,0,.223.615c.018.018.027.036.045.053a.964.964,0,0,0,1.666-.659.365.365,0,0,0-.009-.1A1.091,1.091,0,0,0,223.907,147.875Z" transform="translate(-202.235 -133.994)"/>
      <path id="Path_268" data-name="Path 268" class="cls-2" d="M207.75,130.3a2.45,2.45,0,1,0,2.45,2.45A2.449,2.449,0,0,0,207.75,130.3Zm1.568,2.45a1.57,1.57,0,0,1-1.568,1.568h0a1.582,1.582,0,0,1-1.14-.49.576.576,0,0,1-.071-.08,1.573,1.573,0,0,1,.1-2.1h0a2.249,2.249,0,0,1,.223-.187l.009-.009a1,1,0,0,1,.187-.107h.009a1.577,1.577,0,0,1,2.219,1.1c.009.053.018.107.027.151a.815.815,0,0,1,.009.151Z" transform="translate(-187.023 -118.691)"/>
    </g>
  </g>
</svg>
